<svg width="72" height="72" viewBox="0 0 72 72" fill="none" xmlns="http://www.w3.org/2000/svg">
<g id="Logo">
<g id="Group 1">
<path id="Rectangle 7" d="M14.7438 58.3739C14.7438 60.2823 16.2908 61.8293 18.1992 61.8293H24.8443C26.7527 61.8293 28.2997 60.2823 28.2997 58.3739V58.3739H14.7438V58.3739Z" fill="#F4A950"/>
<g id="Vector">
<path d="M14.7437 10.1306H28.2997V23.6866C20.8129 23.6866 14.7437 17.6174 14.7437 10.1306Z" fill="white"/>
<path d="M14.7437 46.014C14.7437 38.5273 20.8129 32.4581 28.2997 32.4581V57.0449H14.7437V46.014Z" fill="white"/>
<path d="M31.7551 36.4451H45.7098L57.2722 61.8293H43.3175L31.7551 36.4451Z" fill="white"/>
<path d="M28.2997 10.1306L35.8086 10.1306C45.534 10.1306 53.4181 18.0146 53.4181 27.7401C53.4181 37.4655 45.534 45.3495 35.8086 45.3495H28.2997V10.1306Z" fill="white"/>
</g>
<path id="Rectangle 5" d="M28.2999 19.6996L38.7991 28.0724L28.2999 36.4452V19.6996Z" fill="black"/>
</g>
</g>
</svg>
